<?xml version="1.0" encoding="UTF-8"?>
<!-- Created with Inkscape (http://www.inkscape.org/) -->
<svg width="512" height="397.09" version="1.1" viewBox="0 0 512 397.09" xmlns="http://www.w3.org/2000/svg">
    <path id="path3188" d="m0 0v319.88c0 39.16 29.979 72.554 68.911 76.762 38.933 4.2087 75.357-22.007 83.725-60.262l5.0437-23.057h43.139c20.733 0 39.88-7.2555 55.181-19.248 15.3 11.992 34.449 19.248 55.181 19.248h43.139l5.0437 23.057c8.3686 38.255 44.792 64.471 83.725 60.262 38.933-4.2087 68.911-37.603 68.911-76.762v-319.88h-64.635l-47.711 22-47.711-22h-191.89l-47.711 22-47.711-22z" fill="#690026" stop-color="#000000" style="-inkscape-stroke:none;font-variation-settings:normal"/>
    <path id="path867" d="m285.78 64.635h14.139l40.265 184.06h-29c-14.414 0-25.404-10.991-25.404-25.404z" fill="#ff0" style="-inkscape-stroke:none;font-variation-settings:normal"/>
    <path id="path865" d="m212.08 64.635h14.139v158.65c0 14.414-10.991 25.404-25.404 25.404h-29z" fill="#fff" style="-inkscape-stroke:none;font-variation-settings:normal"/>
    <path id="path898" d="m160.06 2.02e-4 -70.562 322.57c-1.43 6.5374-6.9827 10.535-13.636 9.8153-6.6532-0.71921-11.223-5.8098-11.223-12.502v-319.88" fill="#fff" stop-color="#000000" style="-inkscape-stroke:none;font-variation-settings:normal"/>
    <path id="path894" d="m447.36 0v319.88c0 6.692-4.5704 11.783-11.223 12.502-6.6529 0.71906-12.206-3.2778-13.636-9.8153l-70.562-322.57" fill="#fff" stop-color="#000000" style="-inkscape-stroke:none;font-variation-settings:normal"/>
</svg>
