<?xml version="1.0" encoding="UTF-8"?>
<!-- Created with Inkscape (http://www.inkscape.org/) -->
<svg width="1920" height="1080" version="1.1" viewBox="0 0 1920 1080" xmlns="http://www.w3.org/2000/svg">
    <rect width="1920" height="1080" fill="#e6e6e6" stop-color="#000000" stroke-width="64"/>
    <path id="path3188" d="m152.67 360.52v249.69c0 30.568 23.401 56.634 53.791 59.919 30.39 3.2852 58.822-17.178 65.354-47.039l3.937-17.998h33.673c16.184 0 31.13-5.6635 43.073-15.025 11.943 9.3607 26.89 15.025 43.073 15.025h33.673l3.937 17.998c6.5324 29.861 34.964 50.325 65.354 47.039 30.39-3.2852 53.791-29.352 53.791-59.919v-249.69h-50.453l-37.242 142.07-37.242-142.07h-149.79l-37.242 142.07-37.242-142.07z" fill="#690026" stop-color="#000000" style="font-variation-settings:normal"/>
    <path id="path867" d="m375.74 410.97h11.037l31.43 143.67h-22.637c-11.251 0-19.83-8.5794-19.83-19.83z" fill="#ff0" style="font-variation-settings:normal"/>
    <path id="path865" d="m318.22 410.97h11.037v123.84c0 11.251-8.5794 19.83-19.83 19.83h-22.637z" fill="#fff" style="font-variation-settings:normal"/>
    <g transform="matrix(.78058 0 0 .78058 113.12 320.96)" fill="#690026" stop-color="#000000" stroke-width="81.99" style="white-space:pre" aria-label="Revamp">
        <path id="path1055" d="m609.08 379.79 5.6664-22.23 40.101-9.5893 60.587-241.04-35.742-10.025 5.2305-22.23h116.38q93.714 0 93.714 68.433 0 44.024-28.332 69.304-22.666 20.486-54.92 24.409l12.205 41.844q10.461 38.357 23.537 56.664t40.101 27.024l-5.2305 20.486q-47.511-1.3076-72.791-23.101t-38.357-65.817l-14.82-47.511h-19.614l-25.281 101.56 35.742 9.5893-5.2305 22.23zm134.69-161.71h13.076q31.383 0 55.356-19.614t23.973-54.485q0-39.665-46.639-39.665h-16.999z"/>
        <path id="path1057" d="m884.26 309.18q0-27.896 9.1534-54.049 9.5893-26.588 26.588-47.946 17.435-21.794 44.459-34.87 27.46-13.512 60.151-13.512 29.204 0 44.024 12.64 14.82 12.205 14.82 30.947 0 38.357-42.28 62.766-37.485 21.358-98.508 30.947v8.7175q0 23.537 10.461 37.485t30.947 13.948q23.973 0 54.485-10.897l5.6664 16.563q-38.793 20.922-83.252 20.922-36.178 0-56.664-18.743-20.05-19.179-20.05-54.92zm143.84-111.15q0-17.435-16.999-17.435-22.23 0-42.716 30.076-18.307 26.588-23.973 61.895 83.688-31.383 83.688-74.535z"/>
        <path id="path1059" d="m1067.9 196.29v-18.307q17.435-5.6664 40.972-12.205 23.537-6.974 31.819-6.974 18.307 0 21.794 17.435l28.332 160.84q13.512-17.871 22.23-30.076 13.512-19.179 24.845-44.024 11.769-24.845 11.769-44.459 0-11.769-6.5381-18.743-6.1023-7.4099-23.102-18.743 17.435-22.23 43.588-22.23 13.948 0 23.102 8.2817 9.5893 8.2817 9.5893 24.409 0 27.024-22.666 67.561-22.23 40.101-85.868 120.74l-43.152 3.0511-33.127-186.56z"/>
        <path id="path1061" d="m1298.7 320.07q0-68.869 41.844-115.07 41.844-46.203 102.43-46.203 42.716 0 78.458 20.05l-43.152 166.51h42.716v18.307q-33.562 9.1534-54.049 14.384-20.05 4.7946-32.255 4.7946-16.128 0-16.128-14.384 0-6.974 2.6153-16.563l2.1794-8.2817q-34.434 39.229-74.099 39.229-23.102 0-37.05-16.127-13.512-16.127-13.512-46.639zm57.972-4.3588q0 32.691 18.307 32.691 14.82 0 31.383-15.256 16.999-15.256 29.204-36.614l29.64-112.02q-6.5382-2.1794-19.179-2.1794-35.306 0-62.33 41.844t-27.024 91.534z"/>
        <path id="path1063" d="m1532.4 382.84 47.075-186.56h-42.716v-18.307q34.434-9.1534 57.1-13.948 23.102-5.2305 30.076-5.2305 15.256 0 15.256 13.076 0 7.8458-2.6152 17.435l-4.7947 17.435q39.665-47.946 78.458-47.946 41.844 0 41.844 43.588 0 2.6153-0.4359 5.6664 38.357-49.254 81.073-49.254 40.972 0 40.972 43.588 0 5.6664-1.3077 14.384-1.3076 8.7175-4.3587 20.486-7.8458 33.563-31.383 107.66h42.716v18.743q-34.87 9.1534-57.536 14.384-22.23 4.7946-30.947 4.7946-15.692 0-15.692-12.64 0-3.487 4.3587-18.743l29.64-101.12q3.9229-14.384 6.1023-24.409 2.1793-10.025 2.1793-14.82 0-13.512-9.5893-13.512-13.512 0-35.742 20.05-15.692 13.948-29.64 35.306l-34.434 126.84-55.792 3.0511 33.127-122.05q10.461-38.793 10.461-49.69 0-13.512-10.461-13.512-13.076 0-36.178 20.486-14.82 13.512-29.204 34.434l-31.819 127.28z"/>
        <path id="path1065" d="m1858.2 510.55 79.766-314.27h-42.28v-18.307q34.87-9.1534 57.536-13.948 23.102-5.2305 29.204-5.2305 15.256 0 15.256 13.076 0 7.8458-2.6152 17.435l-2.1794 9.1534q34.434-39.665 75.843-39.665 20.922 0 34.87 15.692 13.948 15.256 13.948 47.075 0 69.304-42.28 115.51-41.844 45.767-102 45.767-13.948 0-27.024-2.6153l-31.819 123.79zm93.714-152.56q10.461 1.7435 16.999 1.7435 26.153 0 47.946-22.666 21.794-22.666 32.255-51.433 10.897-29.204 10.897-54.485 0-37.921-18.743-37.921-27.896 0-60.151 51.433z"/>
    </g>
    <path id="path898" d="m277.61 360.52-55.079 251.79c-1.1162 5.103-5.4506 8.2234-10.644 7.6616-5.1934-0.5614-8.7604-4.535-8.7604-9.7588v-249.69" fill="#fff" stop-color="#000000" style="font-variation-settings:normal"/>
    <path id="path894" d="m501.88 360.52v249.69c0 5.2236-3.5676 9.1976-8.7604 9.7588-5.1931 0.56129-9.5278-2.5586-10.644-7.6616l-55.079-251.79" fill="#fff" stop-color="#000000" style="font-variation-settings:normal"/>
</svg>
